<svg xmlns="http://www.w3.org/2000/svg" viewBox="0 0 294.1 286.78"><defs><style>.cls-1{fill:#2a4689;}.cls-2{fill:#e4883b;}.cls-3{fill:#010101;}.cls-4{fill:#fff;}.cls-5{fill:#f58220;}</style></defs><g id="Layer_2" data-name="Layer 2"><g id="Layer_1-2" data-name="Layer 1"><path class="cls-1" d="M127,123.07c-.7.6,47.2,6,64.2,2s7.7-32.2,7.7-32.2-24.2-67.6-64.7-80.2-24.8,46.2-24.8,46.2L103,77.37S88.4,9.17,119.4,7.27,178,37.57,178,37.57s34.9,35.9,31,69.3-44.7,26.5-44.7,26.5-65.6-1.1-71.3,0c0,0,2.1-11.1,26.3-11.7,0,0,11.2-.4,13.8-19.8s10.4-52.8,25.1-60.3l2.7,2.1s-5.7.3-9.8,15C146.9,73.07,147.6,105.17,127,123.07Z"></path><path class="cls-2" d="M159.5,124.47V52h8.6v28.7h11v13.5H168.2v30.3Z"></path><path class="cls-2" d="M168.1,135.17c0,8.7,10.5,6.7,10.5,6.7v13.7s3,.6-7.2,0-12-14.9-12-14.9v-5.5Z"></path><path class="cls-3" d="M164.3,90c-49.9,31.3-97.9,44.5-107.3,29.5S80.4,67,130.3,35.67c7.6-4.8,15.1-9.1,22.5-13,41.1-21.6,76.8-29.2,84.8-16.5C246.9,21.17,214.1,58.77,164.3,90Zm61.1-76.2c-8.1-13-49.8-1.6-92.9,25.5S60.9,98.87,69,111.87s49.8,1.6,92.9-25.5S233.6,26.77,225.4,13.77Z"></path><polygon class="cls-4" points="100.5 62.47 100 56.97 107.7 51.07 108.6 55.97 100.5 62.47"></polygon><path class="cls-4" d="M159.5,93V88s8.4-5.3,11.3-7.3h7.7S165.2,89.77,159.5,93Z"></path><polyline class="cls-4" points="156.4 25.77 162.1 22.97 157.9 19.97 152.7 22.67"></polyline><path class="cls-4" d="M131.7,108.07a55.94,55.94,0,0,0,1.2-5.6s6.9-3.4,10.1-5.1c0,0-2.1,6.3-2.3,6.3Z"></path><path class="cls-3" d="M1.9,171.27h9.5c6.1,0,10.3.3,12.4.8a9.36,9.36,0,0,1,4.9,2.8,8.7,8.7,0,0,1,2.1,4.3,63.58,63.58,0,0,1,.4,9.3v17.1a41,41,0,0,1-.6,8.8,6.22,6.22,0,0,1-2.2,3.5,7.73,7.73,0,0,1-3.8,1.7,38.92,38.92,0,0,1-6.8.5H1.9Zm16.7,14.4a20.67,20.67,0,0,0-.2-4.3,2.07,2.07,0,0,0-1-1.4,6.56,6.56,0,0,0-2.9-.4v32.1c1.8,0,3-.4,3.4-1.1s.6-2.7.6-6"></path><path class="cls-3" d="M42.5,171.27H63.7v9.8H55.2v9.3h7.9v9.3H55.2v10.7h9.3v9.8h-22Z"></path><path class="cls-3" d="M104.3,192.57H91.6v-8.5c0-2.5-.1-4-.4-4.6a1.81,1.81,0,0,0-1.8-.9,2,2,0,0,0-2,1.1,16.48,16.48,0,0,0-.4,4.8v22.7a14.86,14.86,0,0,0,.4,4.6,2.19,2.19,0,0,0,3.8,0,17.66,17.66,0,0,0,.4-5.1v-6.2h12.7v1.9c0,5.1-.4,8.7-1.1,10.8a11,11,0,0,1-4.8,5.6,16.11,16.11,0,0,1-9,2.4,19.28,19.28,0,0,1-9.2-2,9.8,9.8,0,0,1-4.8-5.6q-1.2-3.6-1.2-10.8v-14.3a69.67,69.67,0,0,1,.4-7.9,11.06,11.06,0,0,1,2.2-5.1,11.74,11.74,0,0,1,5-3.8,16.68,16.68,0,0,1,7.3-1.4,17.79,17.79,0,0,1,9.3,2.2,10.38,10.38,0,0,1,4.8,5.4c.8,2.2,1.1,5.5,1.1,10.1Z"></path><path class="cls-3" d="M144.4,199.87c0,4.9-.1,8.4-.3,10.4a11.76,11.76,0,0,1-7.1,9.5,20,20,0,0,1-7.2,1.4,18.51,18.51,0,0,1-7-1.3,11.83,11.83,0,0,1-7.3-9.4c-.3-3.5-.4-7-.4-10.6v-8.4c0-4.9.1-8.4.3-10.4a11.76,11.76,0,0,1,7.1-9.5,20,20,0,0,1,7.2-1.4,18.51,18.51,0,0,1,7,1.3,11.83,11.83,0,0,1,7.3,9.4c.2,2,.4,5.5.4,10.6Zm-12.7-16a13.73,13.73,0,0,0-.4-4.4,1.68,1.68,0,0,0-1.6-1,1.76,1.76,0,0,0-1.5.8c-.4.5-.5,2-.5,4.5v22.8a24.36,24.36,0,0,0,.3,5.2,1.58,1.58,0,0,0,1.6,1,1.56,1.56,0,0,0,1.7-1.1,26.59,26.59,0,0,0,.4-5.5Z"></path><path class="cls-3" d="M181.1,171.27v9.8h-7.5v39H160.9v-39h-7.5v-9.8Z"></path><path class="cls-3" d="M190.5,171.27h21.2v9.8h-8.5v9.3h7.9v9.3h-7.9v10.7h9.3v9.8h-22Z"></path><path class="cls-3" d="M252.3,192.57H239.6v-8.5c0-2.5-.1-4-.4-4.6a1.81,1.81,0,0,0-1.8-.9,2,2,0,0,0-2,1.1,16.48,16.48,0,0,0-.4,4.8v22.7a14.86,14.86,0,0,0,.4,4.6,2.19,2.19,0,0,0,3.8,0,17.66,17.66,0,0,0,.4-5.1v-6.2h12.7v1.9c0,5.1-.4,8.7-1.1,10.8a11,11,0,0,1-4.8,5.6,16.11,16.11,0,0,1-9,2.4,19.28,19.28,0,0,1-9.2-2,9.8,9.8,0,0,1-4.8-5.6q-1.2-3.6-1.2-10.8v-14.3a69.67,69.67,0,0,1,.4-7.9,11.06,11.06,0,0,1,2.2-5.1,11.74,11.74,0,0,1,5-3.8,16.68,16.68,0,0,1,7.3-1.4,17.79,17.79,0,0,1,9.3,2.2,10.38,10.38,0,0,1,4.8,5.4c.8,2.2,1.1,5.5,1.1,10.1Z"></path><path class="cls-3" d="M292.5,171.27v48.8H279.8v-20.5H276v20.5H263.3v-48.8H276v17.5h3.8v-17.5Z"></path><path class="cls-3" d="M.7,231.27a23.08,23.08,0,0,1,3.7-.3c2.5,0,4.3.6,5.4,1.7a6.24,6.24,0,0,1,1.9,4.8,7.36,7.36,0,0,1-1.9,5.2c-1.2,1.2-3.3,1.9-5.9,1.9a17.2,17.2,0,0,1-3.2-.2Zm1.7,11.8a10.87,10.87,0,0,0,1.8.1c3.7,0,5.7-2.1,5.7-5.7,0-3.2-1.8-5.2-5.4-5.2a12.31,12.31,0,0,0-2,.2Z"></path><path class="cls-3" d="M20.4,238.17H15.2v4.9H21v1.5H13.4v-13.5h7.3v1.5H15.2v4.3h5.2Z"></path><path class="cls-3" d="M32.1,244.07a7.22,7.22,0,0,1-3.6.6c-3.8,0-6.7-2.4-6.7-6.8a6.75,6.75,0,0,1,7-7.1,8.66,8.66,0,0,1,3.2.6l-.4,1.4a6.6,6.6,0,0,0-2.7-.6c-3.2,0-5.2,2-5.2,5.5,0,3.3,1.9,5.4,5.2,5.4a7.53,7.53,0,0,0,2.9-.6Z"></path><path class="cls-3" d="M44.9,237.67c0,4.6-2.8,7.1-6.2,7.1-3.6,0-6-2.8-6-6.8,0-4.3,2.7-7.1,6.2-7.1S44.9,233.67,44.9,237.67Zm-10.5.2c0,2.9,1.6,5.4,4.3,5.4s4.3-2.5,4.3-5.6c0-2.7-1.4-5.5-4.3-5.5s-4.3,2.7-4.3,5.7Z"></path><path class="cls-3" d="M46.6,231.27a18.41,18.41,0,0,1,3.3-.3c1.9,0,3.1.3,3.9,1.1a3.63,3.63,0,0,1,1.1,2.6,3.45,3.45,0,0,1-2.5,3.4v.1a3.45,3.45,0,0,1,2,2.7,26.33,26.33,0,0,0,1,3.7H53.6a16.81,16.81,0,0,1-.9-3.2c-.4-1.9-1.1-2.6-2.7-2.6H48.4v5.8H46.7Zm1.7,6.1h1.8c1.9,0,3-1,3-2.6s-1.3-2.5-3.1-2.5a4.68,4.68,0,0,0-1.7.2Z"></path><path class="cls-3" d="M59.1,240.27l-1.4,4.2H55.9L60.5,231h2.1l4.6,13.5H65.4l-1.4-4.2Zm4.4-1.4L62.2,235c-.3-.9-.5-1.7-.7-2.5h0a21.72,21.72,0,0,1-.7,2.4l-1.3,3.9h4Z"></path><path class="cls-3" d="M69.6,232.57H65.5v-1.5h10v1.5H71.4v12H69.6Z"></path><path class="cls-3" d="M78.2,231.07v13.5H76.5v-13.5Z"></path><path class="cls-3" d="M92.2,237.67c0,4.6-2.8,7.1-6.2,7.1s-6-2.8-6-6.8c0-4.3,2.7-7.1,6.2-7.1S92.2,233.67,92.2,237.67Zm-10.4.2c0,2.9,1.6,5.4,4.3,5.4s4.3-2.5,4.3-5.6c0-2.7-1.4-5.5-4.3-5.5s-4.3,2.7-4.3,5.7Z"></path><path class="cls-3" d="M94,244.47V231h1.9l4.3,6.8a37.51,37.51,0,0,1,2.4,4.4h0a47.87,47.87,0,0,1-.2-5.5v-5.6H104v13.5h-1.8l-4.3-6.8a32.53,32.53,0,0,1-2.5-4.5h-.1c.1,1.7.1,3.3.1,5.5v5.7Z"></path><path class="cls-3" d="M118.7,244.47a15.83,15.83,0,0,0-1.3-1.3,5.34,5.34,0,0,1-3.9,1.5,3.82,3.82,0,0,1-4.1-3.8A4.4,4.4,0,0,1,112,237v-.1a4.3,4.3,0,0,1-1.1-2.8,3.24,3.24,0,0,1,3.2-3.3h.2a2.81,2.81,0,0,1,3,2.9c0,1.4-.8,2.5-3,3.6v.1c1.1,1.3,2.4,2.8,3.3,3.7a9,9,0,0,0,1.3-3.9h1.6a12.16,12.16,0,0,1-1.9,5c.7.8,1.4,1.5,2.2,2.4Zm-2.1-2.3c-.8-.9-2.3-2.5-3.8-4.2a3.34,3.34,0,0,0-1.7,2.7,2.61,2.61,0,0,0,2.6,2.7h.2a3.57,3.57,0,0,0,2.7-1.2Zm-4.1-8.2a3.49,3.49,0,0,0,1,2.4c1.4-.8,2.2-1.5,2.2-2.6a1.6,1.6,0,0,0-1.6-1.7c-1.1,0-1.6.9-1.6,1.9Z"></path><path class="cls-3" d="M125.5,231.27a16.55,16.55,0,0,1,3.2-.3,5.46,5.46,0,0,1,3.7,1,2.77,2.77,0,0,1,1.1,2.4,3.21,3.21,0,0,1-2.3,3h0a3.44,3.44,0,0,1,2.8,3.4,3.86,3.86,0,0,1-1.1,2.7c-1,.9-2.5,1.3-4.6,1.3a12.29,12.29,0,0,1-2.7-.2Zm1.8,5.5h1.6c1.8,0,2.9-1,2.9-2.3,0-1.6-1.2-2.2-3-2.2a7.57,7.57,0,0,0-1.5.1Zm0,6.4a7.57,7.57,0,0,0,1.5.1c1.8,0,3.4-.7,3.4-2.6s-1.6-2.6-3.5-2.6h-1.4Z"></path><path class="cls-3" d="M137.6,231.07v8c0,3,1.3,4.3,3.1,4.3,2,0,3.3-1.3,3.3-4.3v-8h1.8v7.8c0,4.1-2.2,5.8-5.1,5.8s-4.8-1.6-4.8-5.7v-7.9Z"></path><path class="cls-3" d="M150,231.07v13.5h-1.7v-13.5Z"></path><path class="cls-3" d="M152.5,231.07h1.7v12h5.7v1.5h-7.5v-13.5Z"></path><path class="cls-3" d="M161.4,231.27a23.08,23.08,0,0,1,3.7-.3c2.5,0,4.3.6,5.4,1.7a6.24,6.24,0,0,1,1.9,4.8,7.36,7.36,0,0,1-1.9,5.2c-1.2,1.2-3.3,1.9-5.9,1.9a15.64,15.64,0,0,1-3.1-.2Zm1.7,11.8a10.87,10.87,0,0,0,1.8.1c3.7,0,5.7-2.1,5.7-5.7,0-3.2-1.8-5.2-5.4-5.2a12.31,12.31,0,0,0-2,.2v10.6Z"></path><path class="cls-3" d="M175.9,231.07v13.5h-1.7v-13.5Z"></path><path class="cls-3" d="M178.4,244.47V231h1.9l4.3,6.8a37.51,37.51,0,0,1,2.4,4.4h0a47.87,47.87,0,0,1-.2-5.5v-5.6h1.6v13.5h-1.8l-4.3-6.8a32.53,32.53,0,0,1-2.5-4.5h.1c.1,1.7.1,3.3.1,5.5v5.7Z"></path><path class="cls-3" d="M201.2,243.87a11.41,11.41,0,0,1-4.1.7,6.71,6.71,0,0,1-5-1.8,7.28,7.28,0,0,1-1.9-5c0-4,2.8-6.9,7.3-6.9a10.16,10.16,0,0,1,3.4.6l-.4,1.4a7.65,7.65,0,0,0-3-.6c-3.3,0-5.4,2-5.4,5.4s2.1,5.4,5.2,5.4a5.87,5.87,0,0,0,2.3-.4v-4h-2.7v-1.4h4.4Z"></path><path class="cls-3" d="M218.4,238.57c-.1-1.9-.2-4.1-.2-5.8h-.1c-.5,1.6-1,3.3-1.7,5.1l-2.4,6.5h-1.3l-2.2-6.4c-.6-1.9-1.2-3.6-1.6-5.2h0c0,1.7-.1,3.9-.3,5.9l-.4,5.8h-1.7l1-13.5h2.2l2.3,6.5c.6,1.7,1,3.1,1.4,4.5h.1a32.59,32.59,0,0,1,1.4-4.5l2.4-6.5h2.2l.8,13.5h-1.7Z"></path><path class="cls-3" d="M224.6,240.27l-1.4,4.2h-1.8L226,231h2.1l4.6,13.5h-1.9l-1.4-4.2Zm4.4-1.4-1.3-3.9c-.3-.9-.5-1.7-.7-2.5h0a21.72,21.72,0,0,1-.7,2.4l-1.3,3.9h4Z"></path><path class="cls-3" d="M235.1,232.57H231v-1.5h10v1.5h-4.1v12h-1.8Z"></path><path class="cls-3" d="M248.9,238.17h-5.2v4.9h5.8v1.5h-7.6v-13.5h7.3v1.5h-5.5v4.3h5.2v1.3Z"></path><path class="cls-3" d="M251.2,231.27a18.41,18.41,0,0,1,3.3-.3c1.9,0,3.1.3,3.9,1.1a3.63,3.63,0,0,1,1.1,2.6,3.45,3.45,0,0,1-2.5,3.4v.1a3.45,3.45,0,0,1,2,2.7,26.33,26.33,0,0,0,1,3.7h-1.8a16.81,16.81,0,0,1-.9-3.2c-.4-1.9-1.1-2.6-2.7-2.6H253v5.8h-1.7Zm1.8,6.1h1.8c1.9,0,3-1,3-2.6s-1.3-2.5-3.1-2.5a4.68,4.68,0,0,0-1.7.2v4.9Z"></path><path class="cls-3" d="M263.2,231.07v13.5h-1.7v-13.5Z"></path><path class="cls-3" d="M267.9,240.27l-1.4,4.2h-1.8l4.6-13.5h2.1l4.6,13.5h-1.9l-1.4-4.2Zm4.4-1.4L271,235c-.3-.9-.5-1.7-.7-2.5h0a21.72,21.72,0,0,1-.7,2.4l-1.3,3.9h4Z"></path><path class="cls-3" d="M277.4,231.07h1.7v12h5.7v1.5h-7.5v-13.5Z"></path><path class="cls-3" d="M286.1,242.37a5.61,5.61,0,0,0,3.1.9c1.8,0,2.8-1,2.8-2.3s-.7-2-2.5-2.7c-2.2-.8-3.5-1.9-3.5-3.8,0-2.1,1.7-3.7,4.3-3.7a6.3,6.3,0,0,1,3,.7l-.5,1.4a5.83,5.83,0,0,0-2.6-.6c-1.8,0-2.5,1.1-2.5,2,0,1.3.8,1.9,2.7,2.6,2.3.9,3.4,2,3.4,4s-1.5,3.9-4.7,3.9a6.65,6.65,0,0,1-3.4-.9Z"></path><path class="cls-5" d="M22.63,264H18.12v-1.62h11V264H24.56v13.21H22.63Z"></path><path class="cls-5" d="M33.13,262.6a20.61,20.61,0,0,1,3.67-.3c2,0,3.36.37,4.28,1.21a3.68,3.68,0,0,1,1.17,2.81,3.9,3.9,0,0,1-2.79,3.79v.06c1.14.4,1.82,1.46,2.17,3a24.61,24.61,0,0,0,1.14,4.07h-2a18.09,18.09,0,0,1-1-3.55c-.44-2-1.23-2.81-3-2.88H35v6.43H33.13ZM35,269.36h2c2,0,3.34-1.12,3.34-2.82,0-1.91-1.38-2.75-3.4-2.77A7.72,7.72,0,0,0,35,264Z"></path><path class="cls-5" d="M49.84,272.57l-1.53,4.67h-2l5-14.83h2.31l5,14.83h-2l-1.59-4.67Zm4.86-1.5-1.45-4.26c-.33-1-.55-1.85-.77-2.71h0c-.22.88-.47,1.78-.75,2.68l-1.45,4.29Z"></path><path class="cls-5" d="M63.29,262.6a28.1,28.1,0,0,1,4.06-.3c2.75,0,4.7.63,6,1.84a6.84,6.84,0,0,1,2.09,5.33,7.85,7.85,0,0,1-2.13,5.76c-1.39,1.39-3.67,2.14-6.55,2.14a30.62,30.62,0,0,1-3.47-.18Zm1.91,13.12a11.73,11.73,0,0,0,1.93.11c4.09,0,6.31-2.29,6.31-6.3,0-3.49-2-5.72-6-5.72a10.76,10.76,0,0,0-2.24.2Z"></path><path class="cls-5" d="M82.22,262.41v14.83H80.31V262.41Z"></path><path class="cls-5" d="M88,277.24V262.41H90l4.75,7.5a42.71,42.71,0,0,1,2.65,4.82l0,0c-.18-2-.22-3.79-.22-6.1v-6.2h1.8v14.83H97.14l-4.7-7.53a44.29,44.29,0,0,1-2.77-4.95l-.07,0c.11,1.87.15,3.65.15,6.12v6.34Z"></path><path class="cls-5" d="M116.07,276.58a14,14,0,0,1-4.55.81,7,7,0,0,1-7.6-7.48c0-4.42,3.06-7.66,8-7.66a9.23,9.23,0,0,1,3.69.68l-.46,1.57a7.54,7.54,0,0,0-3.27-.64c-3.61,0-6,2.24-6,6s2.27,6,5.72,6a6.13,6.13,0,0,0,2.54-.4V271h-3v-1.54h4.88Z"></path><path class="cls-5" d="M130.83,272.57l-1.54,4.67h-2l5-14.83h2.3l5.06,14.83h-2.05l-1.58-4.67Zm4.86-1.5-1.45-4.26c-.33-1-.55-1.85-.77-2.71h-.05c-.22.88-.46,1.78-.74,2.68l-1.45,4.29Z"></path><path class="cls-5" d="M144.27,277.24V262.41h2.09l4.75,7.5a44.55,44.55,0,0,1,2.66,4.82l0,0c-.18-2-.22-3.79-.22-6.1v-6.2h1.8v14.83h-1.93l-4.7-7.53a44.29,44.29,0,0,1-2.77-4.95l-.07,0c.11,1.87.15,3.65.15,6.12v6.34Z"></path><path class="cls-5" d="M161.12,262.6a28.25,28.25,0,0,1,4.07-.3c2.74,0,4.7.63,6,1.84a6.84,6.84,0,0,1,2.09,5.33,7.85,7.85,0,0,1-2.13,5.76c-1.38,1.39-3.67,2.14-6.55,2.14a30.76,30.76,0,0,1-3.47-.18ZM163,275.72a11.88,11.88,0,0,0,1.93.11c4.09,0,6.31-2.29,6.31-6.3,0-3.49-2-5.72-6-5.72a10.83,10.83,0,0,0-2.24.2Z"></path><path class="cls-5" d="M185.19,262.6a19.23,19.23,0,0,1,3.5-.3,6.15,6.15,0,0,1,4.06,1.07A3.13,3.13,0,0,1,194,266a3.52,3.52,0,0,1-2.5,3.26v0a3.82,3.82,0,0,1,3.05,3.72,4,4,0,0,1-1.25,3c-1,.95-2.7,1.39-5.12,1.39a21.91,21.91,0,0,1-3-.18Zm1.91,6.08h1.74c2,0,3.21-1.06,3.21-2.49,0-1.74-1.32-2.42-3.25-2.42a8.83,8.83,0,0,0-1.7.13Zm0,7.1a9.83,9.83,0,0,0,1.61.09c2,0,3.8-.72,3.8-2.88s-1.74-2.86-3.82-2.86H187.1Z"></path><path class="cls-5" d="M207.16,270.28h-5.75v5.35h6.41v1.61h-8.33V262.41h8V264h-6.08v4.69h5.75Z"></path><path class="cls-5" d="M216.06,277.24v-6.3l-4.68-8.53h2.17l2.09,4.09c.57,1.12,1,2,1.47,3.06h0c.42-1,.93-1.94,1.5-3.06l2.13-4.09H223l-5,8.51v6.32Z"></path><path class="cls-5" d="M238.9,269.67c0,5.1-3.09,7.81-6.87,7.81s-6.66-3-6.66-7.53c0-4.71,2.92-7.79,6.88-7.79S238.9,265.27,238.9,269.67Zm-11.49.24c0,3.17,1.72,6,4.73,6s4.74-2.8,4.74-6.17c0-2.94-1.54-6-4.72-6S227.41,266.65,227.41,269.91Z"></path><path class="cls-5" d="M243.78,277.24V262.41h2.08l4.75,7.5a42.89,42.89,0,0,1,2.66,4.82l0,0c-.17-2-.22-3.79-.22-6.1v-6.2h1.8v14.83H253l-4.7-7.53a47.73,47.73,0,0,1-2.77-4.95l-.07,0c.11,1.87.16,3.65.16,6.12v6.34Z"></path><path class="cls-5" d="M260.62,262.6a28.36,28.36,0,0,1,4.07-.3c2.75,0,4.7.63,6,1.84a6.84,6.84,0,0,1,2.08,5.33,7.81,7.81,0,0,1-2.13,5.76c-1.38,1.39-3.67,2.14-6.54,2.14a30.81,30.81,0,0,1-3.48-.18Zm1.91,13.12a11.94,11.94,0,0,0,1.94.11c4.09,0,6.3-2.29,6.3-6.3,0-3.49-1.95-5.72-6-5.72a10.94,10.94,0,0,0-2.25.2Z"></path><path d="M294.1,286.78H0v-32H294.1ZM1,285.78H293.1v-30H1Z"></path></g></g></svg>